<?xml version="1.0" encoding="utf-8"?>
<!-- Generator: Adobe Illustrator 21.1.0, SVG Export Plug-In . SVG Version: 6.00 Build 0)  -->
<svg version="1.1" xmlns="http://www.w3.org/2000/svg" xmlns:xlink="http://www.w3.org/1999/xlink" x="0px" y="0px"
	 viewBox="0 0 229 63.9" style="enable-background:new 0 0 229 63.9;" xml:space="preserve">
<style type="text/css">
	.st0{fill:#0EA9D8;}
	.st1{fill:#33323D;}
	.st2{fill:#F77474;}
	.st3{fill:#30D6B6;}
	.st4{fill:#FBC586;}
	.st5{fill:#37495C;}
	.st6{fill:#465A6F;}
	.st7{fill:#8294A6;}
	.st8{fill:#33333E;}
	.st9{fill:#3C3D49;}
	.st10{fill:#606060;}
	.st11{fill:#FFFFFF;}
	.st12{fill:none;stroke:#FFFFFF;stroke-width:0.5;stroke-miterlimit:10;}
	.st13{opacity:0.25;}
	.st14{display:none;}
	.st15{display:inline;opacity:0.1;}
	.st16{fill:#B04198;}
</style>
<g id="Pattern">
</g>
<g id="Content">
	<g>
		<path class="st11" d="M140.3,47.3l-14.4-30.9c-0.2-0.3-0.5-0.6-0.9-0.6h0c-0.4,0-0.7,0.2-0.9,0.6l-14.6,30.9
			c-0.2,0.5,0,1.1,0.5,1.3c0.5,0.2,1.1,0,1.3-0.5l3.6-7.6H135l3.5,7.6c0.2,0.4,0.5,0.6,0.9,0.6c0.1,0,0.3,0,0.4-0.1
			C140.3,48.3,140.5,47.8,140.3,47.3z M115.8,38.5l9.2-19.5l9.1,19.5H115.8z"/>
		<path class="st11" d="M171.3,47.1l-12.6-17.5L171,17c0.4-0.4,0.4-1,0-1.4c-0.4-0.4-1-0.4-1.4,0l-12.8,13.1l0,0l-7.8,8V16.3
			c0-0.5-0.4-1-1-1s-1,0.4-1,1v31.3c0,0.5,0.4,1,1,1s1-0.4,1-1v-8.1l8.4-8.6l12.4,17.3c0.2,0.3,0.5,0.4,0.8,0.4
			c0.2,0,0.4-0.1,0.6-0.2C171.5,48.2,171.6,47.5,171.3,47.1z"/>
		<path class="st11" d="M197,46.7h-16.4v-13h13.9c0.5,0,1-0.4,1-1s-0.4-1-1-1h-13.9v-14H197c0.5,0,1-0.4,1-1s-0.4-1-1-1h-17.4
			c-0.5,0-1,0.4-1,1v31c0,0.5,0.4,1,1,1H197c0.5,0,1-0.4,1-1C198,47.1,197.6,46.7,197,46.7z"/>
		<path class="st11" d="M228.9,47.1l-6.1-8.7c3.5-2.1,5.9-6,5.9-10.5c0-6.8-5.3-12.2-12-12.2h-10.5c-0.5,0-1,0.4-1,1v31
			c0,0.5,0.4,1,1,1s1-0.4,1-1v-7.6h9.6c1.5,0,2.9-0.3,4.2-0.8l6.3,8.9c0.2,0.3,0.5,0.4,0.8,0.4c0.2,0,0.4-0.1,0.6-0.2
			C229.1,48.2,229.2,47.6,228.9,47.1z M207.2,17.7h9.5c5.6,0,10,4.5,10,10.2c0,4.1-2.2,7.5-5.5,9.2c-0.2,0-0.3,0.1-0.5,0.2
			c0,0-0.1,0.1-0.1,0.1c-1.2,0.5-2.5,0.8-3.9,0.8h-9.6V17.7z"/>
		<path class="st11" d="M100,30.5c2.3-1.4,3.9-3.9,3.9-6.8c0-4.4-3.5-7.9-7.9-7.9H83c-0.5,0-1,0.4-1,1v30.9c0,0.5,0.4,1,1,1h13.6
			c5.2,0,9.2-4.2,9.2-9.5C105.7,35.4,103.3,32,100,30.5z M96,17.7c3.3,0,5.9,2.7,5.9,6s-2.7,6-6,6H84V17.7H96z M96.5,46.7H84V31.6
			h12c4.2,0,7.8,3.5,7.8,7.5C103.8,43.4,100.6,46.7,96.5,46.7z"/>
		<g>
			<g>
				<path class="st11" d="M28.9,48.6l11.7,6.8c0.8,0.5,0.8,1.6,0,2.1l-10.4,6c-1.2,0.7-2.7,0.7-3.9,0l-10.3-6
					c-0.8-0.5-0.8-1.6,0-2.1l11.8-6.8C28,48.4,28.5,48.4,28.9,48.6z"/>
				<g>
					<path class="st11" d="M34.7,44.5L54.7,33c0.8-0.5,1.8,0.1,1.8,1v12.6c0,1-0.5,1.9-1.4,2.4l-7.4,4.3c-0.4,0.2-0.8,0.2-1.2,0
						l-11.8-6.8C33.9,46.1,33.9,44.9,34.7,44.5z"/>
					<path class="st11" d="M21.7,46.6L10,53.3c-0.4,0.2-0.8,0.2-1.2,0L1.4,49C0.6,48.5,0,47.6,0,46.7L0,34c0-0.9,1-1.5,1.8-1
						l20,11.5C22.5,44.9,22.5,46.1,21.7,46.6z"/>
				</g>
			</g>
			<path class="st11" d="M1.8,16.7L17,25.5c0.8,0.5,0.8,1.6,0,2.1l-7,4.1c-0.4,0.2-0.8,0.2-1.2,0l-8.2-4.8c-0.4-0.2-0.6-0.6-0.6-1
				l0-8.1C0,16.8,1,16.2,1.8,16.7z M27.6,31.6l-3.5-2c-0.4-0.2-0.8-0.2-1.2,0l-7,4.1c-0.8,0.5-0.8,1.6,0,2.1l11.7,6.7
				c0.4,0.2,0.8,0.2,1.2,0l11.8-6.7c0.8-0.5,0.8-1.6,0-2.1l-7-4c-0.4-0.2-0.8-0.2-1.2,0l-3.6,2C28.4,31.8,28,31.8,27.6,31.6z
				 M39.4,27.5l7,4.1c0.4,0.2,0.8,0.2,1.2,0l8.2-4.7c0.4-0.2,0.6-0.6,0.6-1l0-8.1c0-0.9-1-1.5-1.8-1l-15.2,8.8
				C38.6,25.9,38.6,27.1,39.4,27.5z"/>
			<path class="st11" d="M49.9,14c0.8-0.5,0.8-1.6,0-2.1l-7.6-4.4l0,0l-12.2-7c-1.2-0.7-2.7-0.7-3.9,0l-12.1,7l0,0l-7.6,4.4
				c-0.8,0.5-0.8,1.6,0,2.1l11.7,6.8c0.4,0.2,0.8,0.2,1.2,0l8.2-4.7c0.4-0.2,0.8-0.2,1.2,0l8.2,4.7c0.4,0.2,0.8,0.2,1.2,0L49.9,14z"
				/>
		</g>
	</g>
</g>
<g id="guides" class="st14">
	<g class="st15">
		<rect x="28.7" y="-1504.1" class="st16" width="74.5" height="3928.4"/>
		<rect x="128.3" y="-1504.1" class="st16" width="74.5" height="3928.4"/>
		<rect x="227.9" y="-1504.1" class="st16" width="74.5" height="3928.4"/>
	</g>
</g>
</svg>
